<?xml version="1.0" encoding="utf-8"?>
<svg viewBox="89.917 100.098 137.7 60.4" xmlns="http://www.w3.org/2000/svg">
  <g transform="matrix(0.22961899638175967, 0, 0, 0.2278379946947098, 64.84727478027344, 83.89892578125)" style="">
    <title>rings</title>
    <path class="st3" id="shadow" d="M 572.5 81.2 C 530.9 81.2 494 101.5 471.1 132.7 C 450.4 113 422.5 100.9 391.8 100.9 C 353.9 100.9 320.3 119.3 299.3 147.6 C 280.6 130.9 256 120.7 229.1 120.7 C 170.9 120.7 123.6 168 123.6 226.2 C 123.6 284.4 170.9 331.7 229.1 331.7 C 260.8 331.7 289.3 317.6 308.7 295.4 C 329.7 317.4 359.2 331.1 391.9 331.1 C 426.8 331.1 458.1 315.5 479.2 290.9 C 502.2 316.5 535.6 332.5 572.6 332.5 C 641.9 332.5 698.3 276.1 698.3 206.8 C 698.3 137.5 641.9 81.2 572.5 81.2 Z M 478.6 260 C 469.7 244.3 464.6 226.2 464.6 207 C 464.6 191.6 467.9 177 473.7 163.7 C 483.4 178.8 489.1 196.8 489.1 216.1 C 489.1 231.8 485.3 246.8 478.6 260 Z M 307.7 264.9 C 299.3 250.5 294.5 233.8 294.5 216 C 294.5 202.5 297.3 189.7 302.2 178 C 311.3 191.8 316.7 208.4 316.7 226.2 C 316.7 240.2 313.5 253.3 307.7 264.9 Z M 229.1 314 C 180.8 314 141.4 274.7 141.4 226.3 C 141.4 178 180.7 138.6 229.1 138.6 C 252.6 138.6 274 147.9 289.7 163 C 281.4 178.9 276.7 196.9 276.7 216 C 276.7 240.3 284.3 262.8 297.2 281.4 C 281.1 301.3 256.5 314 229.1 314 Z M 391.8 313.4 C 363 313.4 337.1 300.8 319.3 280.9 C 329 265 334.5 246.3 334.5 226.3 C 334.5 201.6 325.9 178.9 311.7 160.9 C 329.3 135.5 358.6 118.8 391.8 118.8 C 419.1 118.8 443.7 130.1 461.4 148.2 C 452.1 165.8 446.8 185.8 446.8 207 C 446.8 232.8 454.6 256.7 467.9 276.7 C 450.1 299 422.6 313.4 391.8 313.4 Z M 572.5 314.8 C 539.4 314.8 509.7 299.8 489.9 276.2 C 500.7 258.7 506.9 238.1 506.9 216 C 506.9 189.8 498.1 165.6 483.3 146.2 C 502.7 117.7 535.5 99 572.5 99 C 632 99 680.4 147.4 680.4 206.9 C 680.4 266.4 632 314.8 572.5 314.8 Z" style="fill-rule: nonzero; paint-order: fill; fill: rgb(34, 81, 137);">
      <title>drop-shadow</title>
    </path>
    <path class="st3" id="rings" d="M 563.538 74.088 C 521.938 74.088 485.038 94.388 462.138 125.588 C 441.438 105.888 413.538 93.788 382.838 93.788 C 344.938 93.788 311.338 112.188 290.338 140.488 C 271.638 123.788 247.038 113.588 220.138 113.588 C 161.938 113.588 114.638 160.888 114.638 219.088 C 114.638 277.288 161.938 324.588 220.138 324.588 C 251.838 324.588 280.338 310.488 299.738 288.288 C 320.738 310.288 350.238 323.988 382.938 323.988 C 417.838 323.988 449.138 308.388 470.238 283.788 C 493.238 309.388 526.638 325.388 563.638 325.388 C 632.938 325.388 689.338 268.988 689.338 199.688 C 689.338 130.388 632.938 74.088 563.538 74.088 Z M 469.638 252.888 C 460.738 237.188 455.638 219.088 455.638 199.888 C 455.638 184.488 458.938 169.888 464.738 156.588 C 474.438 171.688 480.138 189.688 480.138 208.988 C 480.138 224.688 476.338 239.688 469.638 252.888 Z M 298.738 257.788 C 290.338 243.388 285.538 226.688 285.538 208.888 C 285.538 195.388 288.338 182.588 293.238 170.888 C 302.338 184.688 307.738 201.288 307.738 219.088 C 307.738 233.088 304.538 246.188 298.738 257.788 Z M 220.138 306.888 C 171.838 306.888 132.438 267.588 132.438 219.188 C 132.438 170.888 171.738 131.488 220.138 131.488 C 243.638 131.488 265.038 140.788 280.738 155.888 C 272.438 171.788 267.738 189.788 267.738 208.888 C 267.738 233.188 275.338 255.688 288.238 274.288 C 272.138 294.188 247.538 306.888 220.138 306.888 Z M 382.838 306.288 C 354.038 306.288 328.138 293.688 310.338 273.788 C 320.038 257.888 325.538 239.188 325.538 219.188 C 325.538 194.488 316.938 171.788 302.738 153.788 C 320.338 128.388 349.638 111.688 382.838 111.688 C 410.138 111.688 434.738 122.988 452.438 141.088 C 443.138 158.688 437.838 178.688 437.838 199.888 C 437.838 225.688 445.638 249.588 458.938 269.588 C 441.138 291.888 413.638 306.288 382.838 306.288 Z M 563.538 307.688 C 530.438 307.688 500.738 292.688 480.938 269.088 C 491.738 251.588 497.938 230.988 497.938 208.888 C 497.938 182.688 489.138 158.488 474.338 139.088 C 493.738 110.588 526.538 91.888 563.538 91.888 C 623.038 91.888 671.438 140.288 671.438 199.788 C 671.438 259.288 623.038 307.688 563.538 307.688 Z" style="fill: rgb(255, 255, 255); fill-rule: nonzero; paint-order: fill;">
      <title>rings</title>
    </path>
  </g>
</svg>