<?xml version="1.0" encoding="utf-8"?>
<svg viewBox="150 100 150 100" width="150" height="100" xmlns="http://www.w3.org/2000/svg">
  <g transform="matrix(0.201844, 0, 0, 0.201844, 142.052218, 90.920267)">
    <path class="st3" d="M572.5,81.2c-41.6,0-78.5,20.3-101.4,51.5c-20.7-19.7-48.6-31.8-79.3-31.8c-37.9,0-71.5,18.4-92.5,46.7 c-18.7-16.7-43.3-26.9-70.2-26.9c-58.2,0-105.5,47.3-105.5,105.5c0,58.2,47.3,105.5,105.5,105.5c31.7,0,60.2-14.1,79.6-36.3 c21,22,50.5,35.7,83.2,35.7c34.9,0,66.2-15.6,87.3-40.2c23,25.6,56.4,41.6,93.4,41.6c69.3,0,125.7-56.4,125.7-125.7 S641.9,81.2,572.5,81.2z M478.6,260c-8.9-15.7-14-33.8-14-53c0-15.4,3.3-30,9.1-43.3c9.7,15.1,15.4,33.1,15.4,52.4 C489.1,231.8,485.3,246.8,478.6,260z M307.7,264.9c-8.4-14.4-13.2-31.1-13.2-48.9c0-13.5,2.8-26.3,7.7-38 c9.1,13.8,14.5,30.4,14.5,48.2C316.7,240.2,313.5,253.3,307.7,264.9z M229.1,314c-48.3,0-87.7-39.3-87.7-87.7 c0-48.3,39.3-87.7,87.7-87.7c23.5,0,44.9,9.3,60.6,24.4c-8.3,15.9-13,33.9-13,53c0,24.3,7.6,46.8,20.5,65.4 C281.1,301.3,256.5,314,229.1,314z M391.8,313.4c-28.8,0-54.7-12.6-72.5-32.5c9.7-15.9,15.2-34.6,15.2-54.6 c0-24.7-8.6-47.4-22.8-65.4c17.6-25.4,46.9-42.1,80.1-42.1c27.3,0,51.9,11.3,69.6,29.4c-9.3,17.6-14.6,37.6-14.6,58.8 c0,25.8,7.8,49.7,21.1,69.7C450.1,299,422.6,313.4,391.8,313.4z M572.5,314.8c-33.1,0-62.8-15-82.6-38.6c10.8-17.5,17-38.1,17-60.2 c0-26.2-8.8-50.4-23.6-69.8c19.4-28.5,52.2-47.2,89.2-47.2c59.5,0,107.9,48.4,107.9,107.9S632,314.8,572.5,314.8z" style="fill: rgb(34, 81, 137);"/>
    <g>
      <path class="st3" d="M130.2,373.5h16.5c7.7,0,13.2,1.1,16.6,3.4c3.4,2.2,5.1,5.8,5.1,10.6c0,3.3-0.8,6-2.5,8.1s-4.1,3.5-7.2,4.1 v0.4c3.9,0.7,6.8,2.2,8.6,4.4c1.8,2.2,2.8,5.1,2.8,8.8c0,5-1.7,8.9-5.2,11.7c-3.5,2.8-8.3,4.2-14.6,4.2h-20.1V373.5z M139.3,396.5 h8.8c3.8,0,6.6-0.6,8.3-1.8s2.6-3.3,2.6-6.2c0-2.6-0.9-4.5-2.8-5.7c-1.9-1.2-4.9-1.8-9-1.8h-7.9V396.5z M139.3,403.8v17.6h9.7 c3.8,0,6.7-0.7,8.6-2.2s2.9-3.8,2.9-6.9c0-2.9-1-5-3-6.4s-5-2.1-9-2.1H139.3z" style="fill: rgb(34, 81, 137);"/>
      <path class="st3" d="M186.9,406.9v22.2h-9.1v-55.7h15.7c7.2,0,12.5,1.3,16,4c3.5,2.7,5.2,6.8,5.2,12.2c0,6.9-3.6,11.9-10.8,14.8 l15.7,24.6h-10.4l-13.3-22.2H186.9z M186.9,399.4h6.3c4.2,0,7.3-0.8,9.2-2.4s2.9-3.9,2.9-7c0-3.1-1-5.4-3.1-6.8s-5.2-2.1-9.3-2.1 h-6V399.4z" style="fill: rgb(34, 81, 137);"/>
      <path class="st3" d="M226.1,429.1v-55.7h9.1v55.7H226.1z" style="fill: rgb(34, 81, 137);"/>
      <path class="st3" d="M279.7,414c0,5-1.8,8.8-5.4,11.7s-8.5,4.2-14.8,4.2c-6.3,0-11.5-1-15.5-2.9v-8.6c2.5,1.2,5.2,2.1,8.1,2.8 s5.5,1,8,1c3.6,0,6.3-0.7,8-2.1s2.6-3.2,2.6-5.5c0-2.1-0.8-3.8-2.4-5.3c-1.6-1.4-4.8-3.2-9.8-5.1c-5.1-2.1-8.7-4.4-10.7-7 c-2.1-2.6-3.1-5.8-3.1-9.5c0-4.6,1.7-8.3,5-11c3.3-2.7,7.7-4,13.3-4c5.3,0,10.6,1.2,15.9,3.5l-2.9,7.4c-5-2.1-9.4-3.1-13.3-3.1 c-2.9,0-5.2,0.6-6.7,1.9c-1.5,1.3-2.3,3-2.3,5.1c0,1.4,0.3,2.7,0.9,3.7s1.6,2,3,2.9c1.4,0.9,3.9,2.1,7.5,3.6 c4.1,1.7,7.1,3.3,9,4.8s3.3,3.1,4.2,5C279.3,409.3,279.7,411.5,279.7,414z" style="fill: rgb(34, 81, 137);"/>
      <path class="st3" d="M309.4,429.1h-9.1v-47.9h-16.4v-7.8h41.9v7.8h-16.4V429.1z" style="fill: rgb(34, 81, 137);"/>
      <path class="st3" d="M380.6,401.2c0,9.1-2.3,16.1-6.8,21.1s-10.9,7.5-19.3,7.5c-8.4,0-14.9-2.5-19.4-7.5c-4.5-5-6.8-12.1-6.8-21.3 s2.3-16.2,6.8-21.2s11-7.4,19.4-7.4c8.3,0,14.7,2.5,19.2,7.5C378.4,385.1,380.6,392.1,380.6,401.2z M338.1,401.2 c0,6.9,1.4,12.1,4.2,15.6c2.8,3.5,6.9,5.3,12.3,5.3c5.4,0,9.5-1.8,12.2-5.3c2.8-3.5,4.1-8.7,4.1-15.7c0-6.8-1.4-12-4.1-15.5 c-2.7-3.5-6.8-5.3-12.2-5.3c-5.5,0-9.6,1.8-12.4,5.3S338.1,394.4,338.1,401.2z" style="fill: rgb(34, 81, 137);"/>
      <path class="st3" d="M388.8,429.1v-55.7h9.1v47.9h23.6v7.8H388.8z" style="fill: rgb(34, 81, 137);"/>
      <path class="st3" d="M450.7,429.1v-55.7h9.1v47.9h23.6v7.8H450.7z" style="fill: rgb(34, 81, 137);"/>
      <path class="st3" d="M528.7,429.1l-5.6-15.5h-21.3l-5.4,15.5h-9.6l20.8-55.9h9.9l20.8,55.9H528.7z M520.8,405.8l-5.2-15.2 c-0.4-1-0.9-2.6-1.6-4.8s-1.1-3.8-1.4-4.8c-0.7,3.1-1.7,6.5-3,10.2l-5,14.5H520.8z" style="fill: rgb(34, 81, 137);"/>
      <path class="st3" d="M589.6,400.8c0,9.2-2.6,16.2-7.7,21.1s-12.5,7.3-22.1,7.3h-15.6v-55.7h17.2c8.9,0,15.8,2.4,20.7,7.2 S589.6,392.1,589.6,400.8z M580,401.1c0-13.3-6.2-20-18.7-20h-7.9v40.4h6.5C573.3,421.5,580,414.7,580,401.1z" style="fill: rgb(34, 81, 137);"/>
      <path class="st3" d="M598,429.1v-55.7h9.1v55.7H598z" style="fill: rgb(34, 81, 137);"/>
      <path class="st3" d="M648.2,429.1h-31.5v-55.7h31.5v7.7h-22.4v15.2h21v7.6h-21v17.5h22.4V429.1z" style="fill: rgb(34, 81, 137);"/>
      <path class="st3" d="M690.4,414c0,5-1.8,8.8-5.4,11.7s-8.5,4.2-14.8,4.2s-11.5-1-15.5-2.9v-8.6c2.5,1.2,5.2,2.1,8.1,2.8s5.5,1,8,1 c3.6,0,6.3-0.7,8-2.1s2.6-3.2,2.6-5.5c0-2.1-0.8-3.8-2.4-5.3s-4.8-3.2-9.8-5.1c-5.1-2.1-8.7-4.4-10.7-7s-3.1-5.8-3.1-9.5 c0-4.6,1.7-8.3,5-11s7.7-4,13.3-4c5.3,0,10.6,1.2,15.9,3.5l-2.9,7.4c-5-2.1-9.4-3.1-13.3-3.1c-2.9,0-5.2,0.6-6.7,1.9 s-2.3,3-2.3,5.1c0,1.4,0.3,2.7,0.9,3.7s1.6,2,3,2.9s3.9,2.1,7.5,3.6c4.1,1.7,7.1,3.3,9,4.8s3.3,3.1,4.2,5S690.4,411.5,690.4,414z" style="fill: rgb(34, 81, 137);"/>
    </g>
    <g>
      <path class="st3" d="M174.3,447.7v36c0,4.1-0.9,7.7-2.6,10.8c-1.8,3.1-4.3,5.5-7.7,7.1c-3.3,1.7-7.3,2.5-12,2.5 c-6.9,0-12.3-1.8-16.1-5.5c-3.8-3.7-5.8-8.7-5.8-15.1v-35.9h9.1v35.2c0,4.6,1.1,8,3.2,10.2s5.4,3.3,9.8,3.3 c8.6,0,12.9-4.5,12.9-13.5v-35.2H174.3z" style="fill: rgb(34, 81, 137);"/>
      <path class="st3" d="M231.5,503.3h-11.2L193,459h-0.3l0.2,2.5c0.4,4.7,0.5,9,0.5,12.9v28.9h-8.3v-55.7h11l27.3,44.1h0.2 c-0.1-0.6-0.2-2.7-0.3-6.4s-0.2-6.5-0.2-8.6v-29.2h8.3V503.3z" style="fill: rgb(34, 81, 137);"/>
      <path class="st3" d="M243.9,503.3v-55.7h9.1v55.7H243.9z" style="fill: rgb(34, 81, 137);"/>
      <path class="st3" d="M314.8,475.4c0,9.1-2.3,16.1-6.8,21.1s-10.9,7.5-19.3,7.5c-8.4,0-14.9-2.5-19.4-7.5c-4.5-5-6.8-12.1-6.8-21.3 s2.3-16.2,6.8-21.2s11-7.4,19.4-7.4c8.3,0,14.7,2.5,19.2,7.5C312.6,459.3,314.8,466.3,314.8,475.4z M272.3,475.4 c0,6.9,1.4,12.1,4.2,15.6c2.8,3.5,6.9,5.3,12.3,5.3c5.4,0,9.5-1.8,12.2-5.3c2.8-3.5,4.1-8.7,4.1-15.7c0-6.8-1.4-12-4.1-15.5 c-2.7-3.5-6.8-5.3-12.2-5.3c-5.5,0-9.6,1.8-12.4,5.3S272.3,468.6,272.3,475.4z" style="fill: rgb(34, 81, 137);"/>
      <path class="st3" d="M370.1,503.3H359L331.6,459h-0.3l0.2,2.5c0.4,4.7,0.5,9,0.5,12.9v28.9h-8.3v-55.7h11l27.3,44.1h0.2 c-0.1-0.6-0.2-2.7-0.3-6.4s-0.2-6.5-0.2-8.6v-29.2h8.3V503.3z" style="fill: rgb(34, 81, 137);"/>
      <path class="st3" d="M413.5,503.3h-9v-55.7h31.4v7.7h-22.4v17.4h21v7.7h-21V503.3z" style="fill: rgb(34, 81, 137);"/>
      <path class="st3" d="M467,454.7c-5.2,0-9.3,1.9-12.3,5.6c-3,3.7-4.5,8.8-4.5,15.3c0,6.8,1.4,12,4.3,15.5c2.9,3.5,7.1,5.3,12.5,5.3 c2.4,0,4.6-0.2,6.9-0.7s4.5-1.1,6.9-1.8v7.8c-4.4,1.7-9.3,2.5-14.9,2.5c-8.1,0-14.4-2.5-18.8-7.4c-4.4-4.9-6.6-12-6.6-21.2 c0-5.8,1.1-10.9,3.2-15.2c2.1-4.3,5.2-7.7,9.2-10c4-2.3,8.7-3.5,14.1-3.5c5.7,0,10.9,1.2,15.8,3.6l-3.3,7.6 c-1.9-0.9-3.9-1.7-6-2.3S469.3,454.7,467,454.7z" style="fill: rgb(34, 81, 137);"/>
    </g>
  </g>
</svg>